<?xml version="1.0" encoding="UTF-8" standalone="no"?>
<!-- Created with Inkscape (http://www.inkscape.org/) -->

<svg
   width="200mm"
   height="200mm"
   viewBox="0 0 200 200"
   version="1.1"
   id="svg5"
   xml:space="preserve"
   inkscape:version="1.3 (0e150ed6c4, 2023-07-21)"
   sodipodi:docname="logo_pixel_rouge.svg"
   inkscape:export-filename="desenho.png"
   inkscape:export-xdpi="96"
   inkscape:export-ydpi="96"
   xmlns:inkscape="http://www.inkscape.org/namespaces/inkscape"
   xmlns:sodipodi="http://sodipodi.sourceforge.net/DTD/sodipodi-0.dtd"
   xmlns="http://www.w3.org/2000/svg"
   xmlns:svg="http://www.w3.org/2000/svg"><sodipodi:namedview
     id="namedview7"
     pagecolor="#ffffff"
     bordercolor="#000000"
     borderopacity="0.25"
     inkscape:showpageshadow="2"
     inkscape:pageopacity="0.0"
     inkscape:pagecheckerboard="0"
     inkscape:deskcolor="#d1d1d1"
     inkscape:document-units="mm"
     showgrid="false"
     inkscape:zoom="0.74564395"
     inkscape:cx="230.6731"
     inkscape:cy="433.85318"
     inkscape:window-width="1920"
     inkscape:window-height="1017"
     inkscape:window-x="-8"
     inkscape:window-y="-8"
     inkscape:window-maximized="1"
     inkscape:current-layer="layer3"><inkscape:grid
       type="xygrid"
       id="grid3136"
       originx="0"
       originy="0"
       spacingy="1"
       spacingx="1"
       units="mm"
       visible="false" /></sodipodi:namedview><defs
     id="defs2"><clipPath
       clipPathUnits="userSpaceOnUse"
       id="clipPath9"><g
         inkscape:label="Clip"
         id="use9"><path
           style="fill:#f3c63a;fill-opacity:1;stroke:none;stroke-width:0.280733"
           d="m 98.487206,135.95098 c -2.255322,-19.38915 -3.588682,-38.986785 -3.584701,-58.886829 6.456395,1.418573 11.248345,-0.11283 11.248345,-0.11283 0.0185,20.411402 -1.40533,40.181069 -4.60259,59.120169 z"
           id="path9"
           sodipodi:nodetypes="ccccc" /></g></clipPath></defs><g
     inkscape:label="Camada 1"
     inkscape:groupmode="layer"
     id="layer1"><path
       style="fill:#ab1239;fill-opacity:1;stroke-width:0.354838"
       d="M 0.58065353,100.11291 V 0.58064795 H 100.29033 200 V 100.11291 199.64516 H 100.29033 0.58065353 Z"
       id="path1926" /></g><g
     inkscape:groupmode="layer"
     id="layer2"
     inkscape:label="joystick"
     style="fill:#f3c63a;fill-opacity:1;stroke:none"
     transform="rotate(45,141.65184,128.21649)"><circle
       style="fill:#f3c63a;fill-opacity:1;stroke:none;stroke-width:0.230247"
       id="path3022"
       cx="62.478943"
       cy="137.59126"
       r="20.225807" /><circle
       style="fill:#f3c63a;fill-opacity:1;stroke:none;stroke-width:0.230247"
       id="circle3132"
       cx="122.58626"
       cy="137.59126"
       r="20.225807" /><rect
       style="display:inline;fill:#f3c63a;fill-opacity:1;stroke:none;stroke-width:0.253917"
       id="rect3134"
       width="58.497952"
       height="32.645161"
       x="63.231667"
       y="117.36546" /><path
       style="display:inline;fill:#ab1239;fill-opacity:1;stroke:none;stroke-width:0.264583"
       d="m 59.153135,130.21478 v 5 h -5 v 5 h 5 v 5 h 5.000001 v -5 h 5 v -5 h -5 v -5 z"
       id="path3275"
       sodipodi:nodetypes="ccccccccccccc"
       inkscape:label="dpad" /><g
       id="g6"
       transform="rotate(-14.439882,61.819758,172.24532)"
       inkscape:label="buttons"
       style="display:inline"><circle
         style="fill:#ab1239;stroke-width:0.264583"
         id="path4"
         cx="123.69807"
         cy="148.91441"
         r="3.5127239" /><circle
         style="fill:#ab1239;stroke-width:0.264583"
         id="circle4"
         cx="136.11806"
         cy="148.91441"
         r="3.5127239" /><circle
         style="fill:#ab1239;stroke-width:0.264583"
         id="circle5"
         cx="136.11806"
         cy="159.95441"
         r="3.5127239" /><circle
         style="fill:#ab1239;stroke-width:0.264583"
         id="circle6"
         cx="123.69807"
         cy="159.95441"
         r="3.5127239" /></g></g><g
     inkscape:groupmode="layer"
     id="layer3"
     inkscape:label="Camada 3"
     style="display:inline"
     inkscape:highlight-color="#f39921"
     transform="rotate(45,132.55395,65.73788)"><g
       id="g7"
       inkscape:label="brush"
       transform="matrix(1.0972422,0,0,1.0972422,24.143613,1.3232133)"><path
         style="display:inline;fill:#f3c63a;fill-opacity:1;stroke:none;stroke-width:0.280733"
         d="m 98.487206,135.95098 c -2.255322,-19.38915 -3.588682,-38.986785 -3.584701,-58.886829 6.456395,1.418573 11.248345,-0.11283 11.248345,-0.11283 0.0185,20.411402 -1.40533,40.181069 -4.60259,59.120169 z"
         id="path3220"
         sodipodi:nodetypes="ccccc" /><path
         style="fill:#f3c63a;fill-opacity:1;stroke:none;stroke-width:0.264583"
         d="m 95.229838,75.44758 c 4.750412,1.14921 7.969462,0.852138 10.600802,0 L 104.5,64.802419 c -1.92079,0.634998 -4.14676,1.002972 -7.939517,0 z"
         id="path3271"
         sodipodi:nodetypes="ccccc" /><path
         style="fill:#f3c63a;fill-opacity:1;stroke:none;stroke-width:0.230126"
         d="m 95.012816,55.88577 c 0.195427,10.967523 11.251294,10.445996 12.917014,-1.072207 0.31316,-4.782579 -1.77448,-5.122028 0.70924,-14.976168 -2.10832,3.381454 -5.83289,2.865851 -11.802188,9.232684 -0.688868,1.040921 -1.433441,1.97751 -1.824066,5.658337 z"
         id="path3273"
         sodipodi:nodetypes="cccccc"
         inkscape:label="path3273" /></g><path
       style="display:none;fill:#ab1239;fill-opacity:1;stroke-width:0.264583"
       d="M 88.133062,105.74193 110.26613,81.657258 109.95564,81.346772 87.822579,105.4758 Z"
       id="path12" /><path
       style="display:none;fill:#ab1239;fill-opacity:1;stroke-width:0.264583"
       d="M 94.485642,112.65145 119.00403,90.319441 119.31989,90.660058 94.856397,112.7789 Z"
       id="path13"
       sodipodi:nodetypes="ccccc" /><path
       style="display:inline;fill:#ab1239;fill-opacity:1;stroke-width:0.264583"
       d="m 128.2645,91.737824 -1.75044,0.894898 2.41065,33.969208 1.07096,1.40037 z"
       id="path14"
       sodipodi:nodetypes="ccccc" /><path
       style="display:inline;fill:#ab1239;fill-opacity:1;stroke-width:0.264583"
       d="m 138.71383,128.21442 1.88131,-35.811274 1.84676,0.229576 -2.51059,32.645158 z"
       id="path15"
       sodipodi:nodetypes="ccccc" /></g></svg>
